<svg width="32" height="31" viewBox="0 0 32 31" fill="none" xmlns="http://www.w3.org/2000/svg">
<path fill-rule="evenodd" clip-rule="evenodd" d="M29.6311 25.5896L27.7295 27.3831L20.1214 20.208L22.0231 18.4146L29.6311 25.5896ZM12.1476 17.2363C8.43976 17.2363 5.42318 14.3914 5.42318 10.8946C5.42318 7.39772 8.43976 4.55281 12.1476 4.55281C15.8555 4.55281 18.872 7.39772 18.872 10.8946C18.872 14.3914 15.8555 17.2363 12.1476 17.2363ZM12.1476 2.01611C6.94828 2.01611 2.7334 5.99112 2.7334 10.8946C2.7334 15.798 6.94828 19.773 12.1476 19.773C17.3469 19.773 21.5618 15.798 21.5618 10.8946C21.5618 5.99112 17.3469 2.01611 12.1476 2.01611Z" fill="black"/>
</svg>
